<?xml version="1.0" encoding="utf-8"?><svg viewBox="0 0 34 34" xmlns="http://www.w3.org/2000/svg" xmlns:xlink="http://www.w3.org/1999/xlink"><style>:root>svg{display:none}:root>svg:target{display:block}</style><svg viewBox="0 0 15 29" id="fb" xmlns="http://www.w3.org/2000/svg"><path d="M13.078 16l.656-4.313H9.563V8.876c0-1.219.562-2.344 2.437-2.344h1.922V2.828S12.187 2.5 10.547 2.5c-3.422 0-5.672 2.11-5.672 5.86v3.328H1.031V16h3.844v10.5h4.688V16h3.515z"/></svg><svg viewBox="0 0 22 29" id="ig" xmlns="http://www.w3.org/2000/svg"><path d="M14.714 14.929a3.435 3.435 0 01-3.428 3.428 3.435 3.435 0 01-3.429-3.428 3.435 3.435 0 013.429-3.429 3.435 3.435 0 013.428 3.429zm1.848 0a5.27 5.27 0 00-5.276-5.277 5.27 5.27 0 00-5.277 5.277 5.27 5.27 0 005.277 5.276 5.27 5.27 0 005.277-5.276zm1.447-5.492c0-.683-.55-1.232-1.232-1.232-.683 0-1.232.55-1.232 1.232 0 .684.549 1.233 1.232 1.233.683 0 1.232-.55 1.232-1.232zm-6.723-2.946c1.5 0 4.714-.12 6.067.415a3.29 3.29 0 011.178.777c.362.362.59.71.777 1.179.536 1.352.415 4.567.415 6.067s.12 4.714-.415 6.066a3.288 3.288 0 01-.777 1.18 3.29 3.29 0 01-1.178.776c-1.353.536-4.567.415-6.067.415s-4.715.12-6.067-.415a3.289 3.289 0 01-1.179-.777 3.288 3.288 0 01-.777-1.178c-.535-1.353-.415-4.567-.415-6.067s-.12-4.715.415-6.067c.188-.47.416-.817.777-1.179.362-.362.71-.59 1.179-.777 1.352-.535 4.567-.415 6.067-.415zM21.57 14.93c0-1.42.014-2.826-.067-4.246-.08-1.647-.455-3.107-1.66-4.312-1.206-1.206-2.665-1.58-4.313-1.661-1.42-.08-2.826-.067-4.245-.067-1.42 0-2.826-.014-4.246.067-1.647.08-3.107.455-4.312 1.66-1.206 1.206-1.58 2.666-1.661 4.313C.987 12.103 1 13.509 1 14.929c0 1.42-.013 2.825.067 4.245.08 1.647.455 3.107 1.66 4.313 1.206 1.205 2.666 1.58 4.313 1.66 1.42.08 2.826.067 4.246.067 1.42 0 2.826.014 4.245-.067 1.648-.08 3.107-.455 4.313-1.66 1.205-1.206 1.58-2.666 1.66-4.313.08-1.42.067-2.826.067-4.245z"/></svg><svg viewBox="0 0 34 34" id="tools" xmlns="http://www.w3.org/2000/svg"><path d="M7.813 16.313l8.437-8.438-2.813-2.75L9.626 9c-.125.063-.25.125-.375.125A.477.477 0 018.937 9l-.75-.75a.49.49 0 010-.688l3.876-3.875-2.126-2.062c-.75-.813-2-.813-2.75 0L1.563 7.188C.75 8 .75 9.25 1.563 10l6.25 6.313zM32.063 9a2.98 2.98 0 000-4.25L29.25 1.937a2.98 2.98 0 00-4.25 0l-2.875 2.875 7.063 7.063L32.063 9zM20.75 6.187L2.187 24.75 1 31.5c-.188.875.625 1.688 1.5 1.5l6.75-1.188L27.813 13.25 20.75 6.187zm11.625 17.875l-2.063-2.125-3.875 3.875a.49.49 0 01-.687 0l-.75-.75a.49.49 0 010-.687l3.875-3.813-2.75-2.812-8.438 8.438L24 32.438c.75.812 2 .812 2.813 0l5.562-5.626c.813-.75.813-2 0-2.75z"/></svg></svg>