<svg width="22" height="29" viewBox="0 0 22 29" xmlns="http://www.w3.org/2000/svg">
<path d="M14.7143 14.9286C14.7143 16.817 13.1741 18.3571 11.2857 18.3571C9.39732 18.3571 7.85714 16.817 7.85714 14.9286C7.85714 13.0402 9.39732 11.5 11.2857 11.5C13.1741 11.5 14.7143 13.0402 14.7143 14.9286ZM16.5625 14.9286C16.5625 12.0089 14.2054 9.65178 11.2857 9.65178C8.36607 9.65178 6.00893 12.0089 6.00893 14.9286C6.00893 17.8482 8.36607 20.2054 11.2857 20.2054C14.2054 20.2054 16.5625 17.8482 16.5625 14.9286ZM18.0089 9.4375C18.0089 8.75446 17.4598 8.20536 16.7768 8.20536C16.0938 8.20536 15.5446 8.75446 15.5446 9.4375C15.5446 10.1205 16.0938 10.6696 16.7768 10.6696C17.4598 10.6696 18.0089 10.1205 18.0089 9.4375ZM11.2857 6.49107C12.7857 6.49107 16 6.37053 17.3527 6.90625C17.8214 7.09375 18.1696 7.32143 18.5313 7.68303C18.8929 8.04464 19.1205 8.39286 19.308 8.86161C19.8438 10.2143 19.7232 13.4286 19.7232 14.9286C19.7232 16.4286 19.8438 19.6429 19.308 20.9955C19.1205 21.4643 18.8929 21.8125 18.5313 22.1741C18.1696 22.5357 17.8214 22.7634 17.3527 22.9509C16 23.4866 12.7857 23.3661 11.2857 23.3661C9.78571 23.3661 6.57143 23.4866 5.21875 22.9509C4.75 22.7634 4.40179 22.5357 4.04018 22.1741C3.67857 21.8125 3.45089 21.4643 3.26339 20.9955C2.72768 19.6429 2.84821 16.4286 2.84821 14.9286C2.84821 13.4286 2.72768 10.2143 3.26339 8.86161C3.45089 8.39286 3.67857 8.04464 4.04018 7.68303C4.40179 7.32143 4.75 7.09375 5.21875 6.90625C6.57143 6.37053 9.78571 6.49107 11.2857 6.49107ZM21.5714 14.9286C21.5714 13.5089 21.5848 12.1027 21.5045 10.683C21.4241 9.03571 21.0491 7.57589 19.8438 6.37053C18.6384 5.16518 17.1786 4.79018 15.5312 4.70982C14.1116 4.62946 12.7054 4.64286 11.2857 4.64286C9.86607 4.64286 8.45982 4.62946 7.04018 4.70982C5.39286 4.79018 3.93304 5.16518 2.72768 6.37053C1.52232 7.57589 1.14732 9.03571 1.06696 10.683C0.986607 12.1027 1 13.5089 1 14.9286C1 16.3482 0.986607 17.7545 1.06696 19.1741C1.14732 20.8214 1.52232 22.2812 2.72768 23.4866C3.93304 24.692 5.39286 25.067 7.04018 25.1473C8.45982 25.2277 9.86607 25.2143 11.2857 25.2143C12.7054 25.2143 14.1116 25.2277 15.5312 25.1473C17.1786 25.067 18.6384 24.692 19.8438 23.4866C21.0491 22.2812 21.4241 20.8214 21.5045 19.1741C21.5848 17.7545 21.5714 16.3482 21.5714 14.9286Z"/>
</svg>
