<svg width="34" height="34" viewBox="0 0 34 34" xmlns="http://www.w3.org/2000/svg">
<path d="M7.8125 16.3125L16.25 7.875L13.4375 5.125L9.625 9C9.5 9.0625 9.375 9.125 9.25 9.125C9.125 9.125 9 9.0625 8.9375 9L8.1875 8.25C8 8.0625 8 7.75 8.1875 7.5625L12.0625 3.6875L9.9375 1.625C9.1875 0.8125 7.9375 0.8125 7.1875 1.625L1.5625 7.1875C0.75 8 0.75 9.25 1.5625 10L7.8125 16.3125ZM32.0625 9C33.25 7.8125 33.25 5.9375 32.0625 4.75L29.25 1.9375C28.0625 0.75 26.1875 0.75 25 1.9375L22.125 4.8125L29.1875 11.875L32.0625 9ZM20.75 6.1875L2.1875 24.75L1 31.5C0.8125 32.375 1.625 33.1875 2.5 33L9.25 31.8125L27.8125 13.25L20.75 6.1875ZM32.375 24.0625L30.3125 21.9375L26.4375 25.8125C26.25 26 25.9375 26 25.75 25.8125L25 25.0625C24.8125 24.875 24.8125 24.5625 25 24.375L28.875 20.5625L26.125 17.75L17.6875 26.1875L24 32.4375C24.75 33.25 26 33.25 26.8125 32.4375L32.375 26.8125C33.1875 26.0625 33.1875 24.8125 32.375 24.0625Z" />
</svg>
